<svg width="53" height="62" viewBox="0 0 53 62" fill="none" xmlns="http://www.w3.org/2000/svg">
  <path d="M33.1 33.9V19.4C33.9 20.5 34.4 21.8 34.4 23.2V31.4H37.8V23.2C37.8 19.2 35.4 15.7 31.9 14.1C33.3 12.6 34.2 10.6 34.2 8.5C34.2 4 30.5 0.299999 26.1 0.299999C21.7 0.299999 18 4 18 8.5C18 10.7 18.9 12.7 20.3 14.1C16.8 15.7 14.4 19.1 14.4 23.2V31.4H17.8V23.2C17.8 21.8 18.3 20.5 19.1 19.4V33.9C10.1 35.3 3.9 39.3 2.8 44.2H0.100006V47.6H2.90001C4.50001 53.4 13.3 57.7 24.6 58.1V61.7H28V58.1C39.3 57.7 48.1 53.3 49.7 47.6H52.7V44.2H49.8C48.3 39.3 42.1 35.4 33.1 33.9ZM27.6 54.8V53H24.2V54.8C16.3 54.4 8.00001 51.7 6.10001 47.6H11.7V44.2H6.00001C7.30001 41.2 12.3 38.5 18.8 37.3V45C18.8 47.4 20.8 49.4 23.2 49.4C23.7 49.4 24.2 49.3 24.7 49.1V34.9H27.2V49.1C27.7 49.3 28.2 49.4 28.7 49.4C31.1 49.4 33.1 47.4 33.1 45V37.4C39.6 38.6 44.6 41.2 45.9 44.3H40.4V47.7H45.8C43.8 51.6 35.6 54.4 27.6 54.8Z" fill="#EA4335" />
</svg>
